<?xml version="1.0" standalone="no"?>
<!DOCTYPE svg PUBLIC "-//W3C//DTD SVG 20010904//EN"
 "http://www.w3.org/TR/2001/REC-SVG-20010904/DTD/svg10.dtd">
<svg version="1.0" xmlns="http://www.w3.org/2000/svg"
 width="1024.000000pt" height="1024.000000pt" viewBox="0 0 1024.000000 1024.000000"
 preserveAspectRatio="xMidYMid meet">

<g transform="translate(0.000000,1024.000000) scale(0.100000,-0.100000)"
fill="#000000" stroke="none">
<path d="M6360 6664 c-123 -24 -233 -86 -335 -189 -147 -149 -285 -381 -355
-599 l-22 -66 -29 29 c-16 16 -55 42 -87 58 -54 27 -64 28 -192 28 -128 0
-139 -2 -213 -32 -43 -17 -108 -51 -144 -74 -51 -34 -68 -40 -71 -29 -9 29
-88 96 -129 108 -57 17 -166 15 -235 -4 -56 -16 -59 -16 -110 7 -79 34 -222
39 -320 9 -109 -32 -244 -115 -317 -194 -14 -14 -27 -26 -31 -26 -3 0 -12 15
-18 34 -7 19 -34 57 -60 85 -121 129 -329 157 -508 69 l-40 -20 -38 26 c-80
54 -261 61 -358 13 l-51 -26 -41 21 c-64 33 -177 36 -265 8 l-69 -23 -49 23
c-32 15 -74 24 -128 28 -131 8 -242 -25 -371 -109 -193 -127 -335 -320 -414
-564 -26 -81 -33 -122 -37 -215 -8 -194 36 -321 149 -426 105 -96 201 -130
348 -122 87 5 147 25 220 73 25 17 28 16 74 -14 79 -50 136 -64 235 -59 62 3
99 11 134 28 46 22 50 22 82 7 137 -65 355 -29 436 74 l31 40 48 -45 c63 -59
120 -87 197 -94 l64 -7 2 -100 c2 -89 5 -107 34 -168 45 -94 120 -167 225
-217 98 -47 159 -60 283 -60 338 0 630 250 751 645 15 50 28 91 29 92 1 2 25
-20 55 -47 201 -186 523 -202 774 -38 32 21 61 38 63 38 3 0 23 -16 44 -35
109 -98 291 -139 444 -100 33 9 100 36 148 60 49 25 93 45 98 45 6 0 27 -13
47 -30 78 -62 203 -100 327 -100 91 0 161 16 237 53 l67 33 47 -27 c60 -35
158 -53 243 -46 90 8 131 22 191 62 l51 34 44 -33 c65 -50 106 -61 225 -61 98
0 110 2 170 32 36 18 78 45 94 62 l29 30 42 -34 c23 -19 68 -47 101 -62 54
-26 69 -28 180 -28 121 0 121 0 200 40 147 73 292 247 323 388 8 33 8 62 0 99
-10 46 -20 62 -80 121 l-70 69 25 61 c65 164 78 313 36 422 -41 105 -152 197
-272 225 -100 23 -255 -4 -346 -60 -39 -24 -50 -25 -71 -6 -9 8 -40 26 -69 41
-98 49 -248 43 -362 -15 l-41 -21 -66 33 c-58 28 -75 32 -147 32 -103 0 -175
-18 -226 -55 l-41 -30 -40 40 c-84 84 -234 108 -403 66 -28 -8 -28 -7 -13 16
32 51 69 193 74 290 5 77 2 108 -13 154 -48 156 -170 249 -339 260 -33 2 -71
1 -85 -1z m165 -174 c49 -46 58 -75 53 -174 -6 -112 -44 -230 -127 -395 -112
-225 -236 -395 -429 -591 l-133 -135 -6 -56 c-16 -156 72 -212 206 -131 163
98 342 313 507 609 76 137 88 151 152 184 90 46 249 26 268 -33 3 -12 -7 -33
-30 -59 -87 -102 -94 -188 -31 -399 36 -122 40 -145 40 -245 -1 -130 -20 -181
-90 -243 -163 -143 -464 -149 -564 -11 -26 35 -31 51 -31 99 0 57 1 58 66 129
36 39 70 71 75 71 5 0 9 -11 9 -25 0 -67 60 -135 120 -135 32 0 84 32 105 64
33 50 20 200 -31 359 l-16 48 -42 -64 c-112 -171 -348 -439 -450 -512 -141
-100 -278 -137 -393 -104 -69 19 -137 89 -158 164 -9 31 -15 65 -12 76 3 10 3
19 1 19 -2 0 -25 -23 -51 -51 -90 -97 -245 -189 -367 -218 -63 -15 -182 -16
-238 -1 -98 27 -173 87 -211 170 -17 37 -21 65 -21 150 0 128 25 225 89 349
84 162 194 272 344 345 76 36 94 41 177 44 117 5 178 -13 228 -68 48 -54 61
-107 46 -191 -37 -211 -272 -395 -527 -414 l-58 -4 3 -38 c7 -85 55 -118 167
-117 131 2 257 61 382 179 53 50 54 51 88 180 36 137 100 332 161 487 137 350
320 609 488 690 54 26 70 29 138 26 65 -3 80 -7 103 -28z m-4308 -721 c24 -12
54 -36 67 -55 l23 -34 28 30 c43 45 103 70 166 70 111 0 133 -43 79 -149 -42
-85 -151 -348 -189 -458 -37 -107 -40 -164 -11 -193 34 -34 94 -9 160 66 72
83 194 398 239 618 11 55 26 103 33 107 21 13 106 21 148 14 86 -14 106 -58
75 -161 -8 -27 -15 -50 -15 -50 0 -1 33 31 73 70 94 94 174 135 280 143 98 7
154 -17 194 -84 24 -41 25 -51 20 -126 -6 -86 -21 -131 -110 -337 -83 -191
-87 -252 -16 -258 30 -3 43 4 88 44 62 56 94 108 117 194 40 152 121 287 240
401 124 118 236 169 368 169 84 0 143 -23 177 -69 l23 -31 30 29 c43 41 95 61
162 61 48 0 124 -23 124 -37 0 -3 -24 -55 -54 -116 -61 -126 -105 -256 -177
-526 -133 -498 -247 -713 -442 -840 -103 -66 -172 -84 -307 -79 -158 6 -237
38 -291 116 -21 31 -24 47 -24 122 0 78 3 91 28 129 33 50 80 81 123 81 38 0
54 -16 54 -52 0 -122 125 -169 259 -98 108 58 199 181 266 360 19 52 35 96 35
98 0 2 -23 -21 -50 -51 -118 -129 -274 -191 -391 -155 -83 24 -158 127 -159
216 l0 27 -17 -33 c-24 -49 -124 -136 -197 -172 -67 -33 -167 -49 -220 -36
-32 8 -93 60 -110 95 -40 80 -29 143 78 428 85 226 94 277 50 293 -36 14 -113
-21 -163 -75 -73 -80 -128 -211 -216 -518 -30 -103 -57 -192 -60 -197 -10 -17
-112 -32 -184 -28 -88 5 -106 20 -97 83 3 23 8 49 12 58 3 10 -20 -8 -52 -41
-81 -80 -139 -107 -231 -107 -57 0 -77 4 -100 21 -45 34 -73 91 -73 153 l0 54
-83 -80 c-56 -54 -106 -91 -152 -114 -62 -30 -79 -34 -151 -34 -108 0 -148 25
-196 122 -30 62 -33 74 -32 163 1 210 102 431 274 600 124 123 239 179 364
180 51 0 81 -6 113 -21z m5785 -6 c51 -30 72 -66 72 -127 l1 -54 70 67 c108
102 233 153 339 137 99 -15 146 -77 146 -191 0 -75 -7 -97 -114 -377 -59 -153
-67 -200 -39 -230 30 -33 92 -17 161 43 43 38 62 38 62 -2 0 -82 -127 -236
-237 -286 -113 -52 -244 -28 -300 56 -54 81 -43 156 65 431 44 113 83 219 87
237 15 75 -45 96 -126 45 -103 -66 -175 -215 -268 -552 -22 -80 -42 -158 -46
-173 -8 -41 -60 -60 -165 -61 -101 -1 -147 14 -157 53 -8 31 24 128 139 419
95 241 109 313 65 333 -73 33 -178 -45 -247 -186 -49 -101 -128 -333 -161
-475 -31 -131 -34 -134 -185 -139 -104 -3 -113 -2 -134 19 -28 28 -28 28 87
365 121 357 150 450 172 555 21 102 31 110 139 110 91 0 129 -17 137 -63 6
-29 -2 -82 -20 -132 -4 -13 2 -9 16 10 117 155 327 235 441 168z"/>
<path d="M6328 6257 c-53 -44 -159 -241 -241 -447 -56 -139 -148 -405 -137
-394 39 42 231 303 276 376 131 212 206 432 162 476 -17 17 -29 15 -60 -11z"/>
<path d="M5242 5610 c-96 -59 -189 -208 -226 -363 l-6 -27 50 19 c148 56 270
175 302 294 17 66 2 97 -49 97 -21 0 -53 -9 -71 -20z"/>
<path d="M2062 5604 c-73 -36 -144 -120 -203 -239 -130 -263 -84 -473 82 -366
55 36 97 80 143 153 75 119 126 266 126 365 0 55 -4 67 -25 88 -31 32 -58 31
-123 -1z"/>
<path d="M4215 5606 c-155 -72 -301 -388 -256 -553 22 -79 92 -96 174 -42 69
45 113 101 168 214 73 150 96 275 65 350 -25 60 -70 69 -151 31z"/>
</g>
</svg>
